<?xml version="1.0" encoding="UTF-8"?><!DOCTYPE svg PUBLIC "-//W3C//DTD SVG 1.1//EN" "http://www.w3.org/Graphics/SVG/1.1/DTD/svg11.dtd"><svg xmlns="http://www.w3.org/2000/svg" xmlns:xlink="http://www.w3.org/1999/xlink"><defs><clipPath id="a"><path fill="#fff" transform="translate(.393 .464)" d="M0 0h6.786v6.786H0z"/></clipPath></defs><symbol id="check"><g fill="none"><path fill-rule="evenodd" clip-rule="evenodd" d="M13.35 1.16a.577.577 0 0 1 0 .819l-8.105 8.104a.577.577 0 0 1-.82 0L.373 6.031a.58.58 0 1 1 .82-.82l3.642 3.644 7.695-7.696a.58.58 0 0 1 .82 0Z" fill="#486482"/></g></symbol><symbol id="facebook"><g fill="none"><path d="m10.652 11.256.555-3.617H7.736V5.283a1.81 1.81 0 0 1 2.038-1.955h1.579V.257A19.242 19.242 0 0 0 8.552.013a4.416 4.416 0 0 0-4.727 4.87v2.756H.647v3.617h3.178V20h3.91v-8.744h2.917Z" fill="#446381"/></g></symbol><symbol id="instagram"><g fill="none"><path d="M10.012 4.877a5.127 5.127 0 1 0 4.733 3.165 5.12 5.12 0 0 0-4.732-3.165Zm0 8.459a3.332 3.332 0 1 1 3.325-3.332 3.34 3.34 0 0 1-3.325 3.332Zm6.525-8.677a1.195 1.195 0 1 1-2.39 0 1.195 1.195 0 0 1 2.39 0Zm3.395 1.215a5.92 5.92 0 0 0-1.615-4.19A5.957 5.957 0 0 0 14.127.07c-1.65-.092-6.6-.092-8.25 0a5.95 5.95 0 0 0-4.192 1.615 5.937 5.937 0 0 0-1.614 4.19c-.093 1.65-.093 6.6 0 8.25a5.92 5.92 0 0 0 1.614 4.192 5.965 5.965 0 0 0 4.19 1.615c1.65.092 6.6.092 8.25 0a5.92 5.92 0 0 0 4.19-1.615 5.958 5.958 0 0 0 1.614-4.19c.093-1.65.093-6.595 0-8.25l.003-.002Zm-2.133 10.034a3.374 3.374 0 0 1-1.9 1.9 22.044 22.044 0 0 1-5.886.393 22.211 22.211 0 0 1-5.895-.403 3.374 3.374 0 0 1-1.9-1.9 22.041 22.041 0 0 1-.413-5.894 22.211 22.211 0 0 1 .403-5.895 3.375 3.375 0 0 1 1.9-1.9c1.94-.4 3.927-.536 5.904-.405a22.21 22.21 0 0 1 5.895.403 3.375 3.375 0 0 1 1.9 1.9c.398 1.938.534 3.92.402 5.894a22.028 22.028 0 0 1-.41 5.907Z" fill="#446381"/></g></symbol><symbol id="star"><g fill="none"><g clip-path="url(#a)"><path d="M1.924 7.014c-.163.084-.349-.064-.316-.251l.352-2.006L.466 3.333c-.14-.133-.067-.376.12-.403l2.077-.295L3.59.8a.218.218 0 0 1 .393 0l.926 1.835 2.077.295c.187.027.26.27.12.403L5.612 4.757l.352 2.006c.033.187-.153.335-.316.25l-1.863-.956-1.86.957Z" fill="#FFB359"/></g></g></symbol><symbol id="twitter"><g fill="none"><path d="M17.947 4.926c.013.178.013.355.013.533A11.583 11.583 0 0 1 6.297 17.122 11.586 11.586 0 0 1 0 15.277c.329.037.66.054.99.052a8.21 8.21 0 0 0 5.09-1.751 4.106 4.106 0 0 1-3.834-2.84 4.34 4.34 0 0 0 1.845-.075A4.1 4.1 0 0 1 .812 6.638v-.05a4.128 4.128 0 0 0 1.854.522 4.106 4.106 0 0 1-1.27-5.485 11.652 11.652 0 0 0 8.452 4.287 4.626 4.626 0 0 1-.1-.94 4.104 4.104 0 0 1 7.095-2.8 8.071 8.071 0 0 0 2.602-.99 4.089 4.089 0 0 1-1.803 2.258A8.219 8.219 0 0 0 20 2.797a8.812 8.812 0 0 1-2.053 2.129Z" fill="#446381"/></g></symbol></svg>